# Blender 3.6.2
# www.blender.org
mtllib house.mtl
o Cube
v 8.064344 0.000000 -8.064344
v 8.064344 0.000000 8.064344
v -8.064344 0.000000 -8.064344
v -8.064344 0.000000 8.064344
v -10.000000 0.000000 -10.000000
v -10.000000 0.000000 10.000000
v 10.000000 0.000000 -10.000000
v 10.000000 0.000000 10.000000
v 10.000000 10.000000 -10.000000
v -10.000000 10.000000 10.000000
v 10.000000 10.000000 10.000000
v -10.000000 10.000000 -10.000000
v 8.064344 9.227424 8.064344
v 8.064344 9.227424 -8.064344
v -8.064344 9.227424 -8.064344
v -8.064344 9.227424 8.064344
v 3.333333 0.000000 -10.000000
v -3.333333 0.000000 -10.000000
v 3.333333 20.000000 10.000000
v -3.333333 20.000000 10.000000
v -3.333333 0.000000 10.000000
v 3.333333 0.000000 10.000000
v -3.333333 20.000000 -10.000000
v 3.333333 20.000000 -10.000000
v 2.688115 0.000000 -8.064344
v -2.688115 0.000000 -8.064344
v -2.688115 0.000000 8.064344
v 2.688115 0.000000 8.064344
v 2.688115 18.454847 -8.064344
v -2.688115 18.454847 -8.064344
v -2.688115 18.454847 8.064344
v 2.688115 18.454847 8.064344
v -3.333333 10.000000 -10.000000
v 3.333333 10.000000 -10.000000
v 3.333333 10.000000 10.000000
v -3.333333 10.000000 10.000000
v -2.688115 9.227424 8.064344
v 2.688115 9.227424 8.064344
v 2.688115 9.227424 -8.064344
v -2.688115 9.227424 -8.064344
v -10.000000 12.692307 10.000000
v 10.000000 12.692307 -10.000000
v 10.000000 12.692307 10.000000
v -10.000000 12.692307 -10.000000
v -3.333333 12.692307 -10.000000
v 3.333333 12.692307 -10.000000
v 3.333333 12.692307 10.000000
v -3.333333 12.692307 10.000000
vn -0.7388 0.6740 -0.0000
vn -0.0000 -0.0000 1.0000
vn -0.0000 -1.0000 -0.0000
vn -0.0000 -0.0000 -1.0000
vn 0.8640 -0.5034 -0.0000
vn -0.8640 -0.5034 -0.0000
vn 0.7388 0.6740 -0.0000
vn 1.0000 -0.0000 -0.0000
vn -1.0000 -0.0000 -0.0000
vn -0.9487 -0.0000 0.3162
vn -0.0000 -0.9288 0.3707
vn 0.9487 -0.0000 0.3162
vn -0.0000 1.0000 -0.0000
vt 0.533654 0.250000
vt 0.533654 0.000000
vt 0.791667 0.750000
vt 0.791667 0.500000
vt 0.533654 0.750000
vt 0.625000 0.833333
vt 0.533654 0.833333
vt 0.533654 1.000000
vt 0.533654 0.916667
vt 0.625000 0.916667
vt 0.283601 0.524196
vt 0.350804 0.524196
vt 0.149196 0.524196
vt 0.149196 0.725804
vt 0.125000 0.750000
vt 0.125000 0.500000
vt 0.216399 0.524196
vt 0.208333 0.500000
vt 0.283601 0.725804
vt 0.350804 0.725804
vt 0.375000 0.750000
vt 0.291667 0.750000
vt 0.375000 0.500000
vt 0.216399 0.725804
vt 0.533654 0.500000
vt 0.708333 0.500000
vt 0.708333 0.750000
vt 0.375000 0.416667
vt 0.500000 0.416667
vt 0.500000 0.500000
vt 0.500000 0.750000
vt 0.375000 0.000000
vt 0.500000 0.000000
vt 0.500000 0.250000
vt 0.375000 0.250000
vt 0.375000 0.916667
vt 0.500000 0.916667
vt 0.500000 1.000000
vt 0.375000 1.000000
vt 0.216399 0.725804
vt 0.500000 0.833333
vt 0.375000 0.833333
vt 0.500000 0.333333
vt 0.375000 0.333333
vt 0.533654 0.416667
vt 0.625000 0.416667
vt 0.208333 0.750000
vt 0.291667 0.500000
vt 0.625000 0.333333
vt 0.533654 0.333333
s 0
usemtl Material
f 44/1/1 41/2/1 20/3/1 23/4/1
f 43/5/2 19/6/2 47/7/2
f 41/8/2 48/9/2 20/10/2
f 29/11/2 39/11/2 14/12/2
f 3/13/3 4/14/3 6/15/3 5/16/3
f 26/17/3 3/13/3 5/16/3 18/18/3
f 28/19/3 2/20/3 8/21/3 22/22/3
f 2/20/3 1/12/3 7/23/3 8/21/3
f 31/24/4 37/24/4 16/14/4
f 31/24/5 16/14/5 15/13/5 30/17/5
f 32/19/6 29/11/6 14/12/6 13/20/6
f 42/25/7 24/26/7 19/27/7 43/5/7
f 17/28/4 34/29/4 9/30/4 7/23/4
f 7/23/8 9/30/8 11/31/8 8/21/8
f 6/32/9 10/33/9 12/34/9 5/35/9
f 21/36/2 36/37/2 10/38/2 6/39/2
f 4/14/8 3/13/8 15/13/8 16/14/8
f 27/40/4 4/14/4 16/14/4 37/24/4
f 25/11/2 1/12/2 14/12/2 39/11/2
f 1/12/9 2/20/9 13/20/9 14/12/9
f 3/13/2 26/17/2 40/17/2 15/13/2
f 26/17/2 25/11/2 39/11/2 40/17/2
f 2/20/4 28/19/4 38/19/4 13/20/4
f 35/41/10 38/19/10 28/19/10 22/42/10
f 8/21/2 11/31/2 35/41/2 22/42/2
f 35/41/11 36/37/11 37/24/11 38/19/11
f 5/35/4 12/34/4 33/43/4 18/44/4
f 18/44/4 33/43/4 34/29/4 17/28/4
f 15/13/2 40/17/2 30/17/2
f 38/19/4 37/24/4 31/24/4 32/19/4
f 13/20/4 38/19/4 32/19/4
f 40/17/2 39/11/2 29/11/2 30/17/2
f 42/25/4 46/45/4 24/46/4
f 30/17/3 29/11/3 32/19/3 31/24/3
f 4/14/3 27/40/3 21/47/3 6/15/3
f 36/37/12 21/36/12 27/40/12 37/24/12
f 1/12/3 25/11/3 17/48/3 7/23/3
f 25/11/3 26/17/3 18/18/3 17/48/3
f 44/1/4 23/49/4 45/50/4
f 45/50/4 23/49/4 24/46/4 46/45/4
f 47/7/2 19/6/2 20/10/2 48/9/2
f 24/26/13 23/4/13 20/3/13 19/27/13
f 35/41/2 47/7/2 48/9/2 36/37/2
f 11/31/2 43/5/2 47/7/2 35/41/2
f 33/43/4 45/50/4 46/45/4 34/29/4
f 12/34/4 44/1/4 45/50/4 33/43/4
f 34/29/4 46/45/4 42/25/4 9/30/4
f 9/30/8 42/25/8 43/5/8 11/31/8
f 10/33/9 41/2/9 44/1/9 12/34/9
f 36/37/2 48/9/2 41/8/2 10/38/2
